{"title":"Sling Blade 1996 DVDRip BigPerm LKRG","uid":5658636,"size":946827675,"categoryP":"video","categoryS":"movies","magnet":"?xt=urn:btih:e7d353664dac86d5e19c8bac4a2aa5030e70377c&amp;dn=Sling+Blade+1996+DVDRip+BigPerm+LKRG&amp;tr=udp%3A%2F%2Ftracker.openbittorrent.com%3A80&amp;tr=udp%3A%2F%2Fopen.demonii.com%3A1337&amp;tr=udp%3A%2F%2Ftracker.coppersurfer.tk%3A6969&amp;tr=udp%3A%2F%2Fexodus.desync.com%3A6969","seeders":1,"leechers":0,"uploader":"neon","files":-1,"time":1277889077,"description":"Sling Blade 1996 DVDRip BigPerm LKRG\n\nencoded by bigperm   &lt;a href=&quot;\nhttp://img441.imageshack.us/img441/5863/547pdk.gif&quot; rel=&quot;nofollow&quot; target=&quot;_NEW&quot;&gt;\nhttp://img441.imageshack.us/img441/5863/547pdk.gif&lt;/a&gt;\n &lt;a href=&quot;\nhttp://www.imdb.com/title/tt0117666/&quot; rel=&quot;nofollow&quot; target=&quot;_NEW&quot;&gt;\nhttp://www.imdb.com/title/tt0117666/&lt;/a&gt;\n\nSling Blade is a 1996  American drama film set in rural Arkansas, written and directed by Billy Bob Thornton, who also stars in the lead role. It tells the story of a mentally impaired man named Karl Childers who is released from a psychiatric hospital where he has lived since killing his mother and her lover when he was 12 years old. He befriends a young boy, begins a friendship with the boy's mother and eventually confronts the mother's abusive boyfriend, as well as his own dark past. In addition to Thornton, it starred Dwight Yoakam, J. T. Walsh, John Ritter, Lucas Black, Natalie Canerday, James Hampton, and Robert Duvall.\n &lt;a href=&quot;\nhttp://img717.imageshack.us/slideshow/webplayer.php?id=sling1.png&quot; rel=&quot;nofollow&quot; target=&quot;_NEW&quot;&gt;\nhttp://img717.imageshack.us/slideshow/webplayer.php?id=sling1.png&lt;/a&gt;\n\nCast:\n\nBilly Bob Thornton...................Karl Childers\nDwight Yoakam........................Doyle Hargraves\nJ.T. Walsh...........................Charles Bushman\nJohn Ritter..........................Vaughan Cunningham\nLucas Black..........................Frank Wheatley\nNatalie Canerday.....................Linda Wheatley\nJames Hampton........................Jerry Woolridge\nRobert Duvall........................Karl's Father\nRick Dial............................Bill Cox\nBrent Briscoe........................Scooter Hodges\nChristine Renee Ward.................Melinda (as Christy Ward)\nSarah Boss...........................Marsha Dwiggins\nKathy Sue Brown......................Theresa Evans\nWendell Rafferty.....................Melvin\nBruce Hampton........................Morris (as\n\nGeneral:\n\nComplete name : Sling Blade 1996 DVDRip BigPerm LKRG\nFormat : MPEG-4\nFormat profile : Base Media / Version 2\nCodec ID : mp42\nFile size : 903 MiB\nDuration : 2h 27mn\nOverall bit rate : 855 Kbps\n\nVideo:\n\nID : 1\nFormat : AVC\nFormat/Info : Advanced Video Codec\nFormat profile : &lt;a class=&quot;__cf_email__&quot; href=&quot;/cdn-cgi/l/email-protection&quot; data-cfemail=&quot;410c20282f010d726f71&quot;&gt;[email&amp;#160;protected]&lt;/a&gt;&lt;script cf-hash='f9e31' type=&quot;text/javascript&quot;&gt;\n/* &lt;![CDATA[ */!function(){try{var t=&quot;currentScript&quot;in document?document.currentScript:function(){for(var t=document.getElementsByTagName(&quot;script&quot;),e=t.length;e--;)if(t[e].getAttribute(&quot;cf-hash&quot;))return t[e]}();if(t&amp;&amp;t.previousSibling){var e,r,n,i,c=t.previousSibling,a=c.getAttribute(&quot;data-cfemail&quot;);if(a){for(e=&quot;&quot;,r=parseInt(a.substr(0,2),16),n=2;a.length-n;n+=2)i=parseInt(a.substr(n,2),16)^r,e+=String.fromCharCode(i);e=document.createTextNode(e),c.parentNode.replaceChild(e,c)}}}catch(u){}}();/* ]]&gt; */&lt;/script&gt;\nFormat settings, CABAC : Yes\nFormat settings, ReFrames : 2 frames\nCodec ID : avc1\nCodec ID/Info : Advanced Video Coding\nDuration : 2h 27mn\nBit rate mode : Variable\nBit rate : 690 Kbps\nWidth : 718 pixels\nHeight : 462 pixels\nDisplay aspect ratio : 16:9\nFrame rate mode : Variable\nFrame rate : 23.976 fps\nMinimum frame rate : 14.985 fps\nMaximum frame rate : 29.970 fps\nResolution : 8 bits\nColorimetry : 4:2:0\nScan type : Progressive\nBits/(Pixel*Frame) : 0.087\nStream size : 729 MiB (81%)\nWriting library : x264 core 79\n\nAudio:\n\nID : 2\nFormat : AAC\nFormat/Info : Advanced Audio Codec\nFormat version : Version 4\nFormat profile : LC\nFormat settings, SBR : No\nCodec ID : 40\nDuration : 2h 27mn\nBit rate mode : Variable\nBit rate : 160 Kbps\nMaximum bit rate : 246 Kbps\nChannel(s) : 2 channels\nChannel positions : Front: L R\nSampling rate : 48.0 KHz\nStream size : 169 MiB (19%)\nLanguage : English\n\n\n","torrent":{"xt":"urn:btih:e7d353664dac86d5e19c8bac4a2aa5030e70377c","amp;dn":"Sling+Blade+1996+DVDRip+BigPerm+LKRG","amp;tr":["udp%3A%2F%2Ftracker.openbittorrent.com%3A80","udp%3A%2F%2Fopen.demonii.com%3A1337","udp%3A%2F%2Ftracker.coppersurfer.tk%3A6969","udp%3A%2F%2Fexodus.desync.com%3A6969"],"infoHash":"e7d353664dac86d5e19c8bac4a2aa5030e70377c","infoHashBuffer":{"type":"Buffer","data":[231,211,83,102,77,172,134,213,225,156,139,172,74,42,165,3,14,112,55,124]},"announce":[],"urlList":[]}}